# xmcd
#
# Track frame offsets:
#	150
#	16675
#	29410
#	40696
#	52595
#	64661
#	80280
#	89964
#	100679
#	112634
#	123892
#	135944
#
# Disc length: 1948 seconds
#
# Revision: 1
# Processed by: cddbd v1.5.1PL2 Copyright (c) Steve Scherf et al.
# Submitted via: EasyCDDAExtractor 8.2.3.1
#
DISCID=7f079a0c
DTITLE=Jacó e Jacózinho - Tragédia
DYEAR=1981
DGENRE=Sertanejo
TTITLE0=Sete irmãos
TTITLE1=Não deixe o circo morrer
TTITLE2=Enxada pioneira
TTITLE3=Faz de conta
TTITLE4=Lamento de um carreiro
TTITLE5=Árvore velha
TTITLE6=Feijão
TTITLE7=Mais um mé
TTITLE8=O fumo
TTITLE9=Imagina
TTITLE10=O mentiroso
TTITLE11=Desencoste da Chiquinha
EXTD=
EXTT0=
EXTT1=
EXTT2=
EXTT3=
EXTT4=
EXTT5=
EXTT6=
EXTT7=
EXTT8=
EXTT9=
EXTT10=
EXTT11=
PLAYORDER=
